<svg xmlns="http://www.w3.org/2000/svg" xmlns:xlink="http://www.w3.org/1999/xlink" width="1080" zoomAndPan="magnify" viewBox="0 0 810 809.999993" height="1080" preserveAspectRatio="xMidYMid meet" version="1.0"><path fill="#012bad" d="M 728.722656 433.0625 C 723.789062 433.0625 718.859375 431.921875 714.304688 429.269531 L 446.46875 274.484375 C 446.46875 274.484375 443.054688 274.105469 441.535156 274.484375 C 436.226562 274.484375 432.050781 278.65625 432.050781 283.96875 L 432.050781 365.15625 C 432.050781 375.398438 426.742188 384.882812 418.015625 389.8125 L 347.453125 430.40625 C 343.28125 433.0625 338.347656 434.199219 333.414062 434.199219 C 326.207031 434.199219 319 431.542969 313.6875 426.234375 C 307.996094 420.921875 304.960938 413.335938 304.960938 405.746094 L 304.960938 95.421875 C 304.960938 79.867188 317.863281 66.96875 333.414062 66.96875 C 338.347656 66.96875 343.28125 68.105469 347.453125 70.761719 L 742.757812 298.386719 C 751.484375 303.695312 756.792969 312.800781 757.175781 323.042969 L 757.175781 404.230469 C 757.175781 419.785156 744.65625 432.683594 729.101562 433.0625 Z M 728.722656 433.0625 " fill-opacity="1" fill-rule="nonzero"/><path fill="#ffffff" d="M 333.414062 76.453125 C 336.828125 76.453125 339.863281 77.210938 342.898438 78.730469 L 639.191406 250.203125 L 736.6875 307.488281 C 742.378906 310.902344 746.171875 316.972656 746.171875 323.804688 L 746.171875 404.988281 C 746.171875 415.230469 738.207031 423.578125 727.960938 423.957031 L 727.203125 423.957031 C 723.789062 423.957031 720.753906 423.199219 717.71875 421.679688 L 528.035156 312.800781 L 447.984375 266.898438 C 445.332031 265 441.917969 264.242188 438.5 264.242188 C 427.878906 264.242188 419.53125 272.585938 419.53125 283.210938 L 419.53125 364.394531 C 419.53125 371.222656 416.117188 377.671875 410.046875 381.089844 L 342.898438 421.300781 C 339.863281 422.820312 336.828125 423.578125 333.414062 423.578125 C 323.171875 423.578125 314.828125 415.609375 314.445312 405.367188 L 314.445312 95.421875 C 314.445312 84.796875 322.792969 76.453125 333.414062 76.453125 M 333.414062 57.484375 C 312.550781 57.484375 295.480469 74.554688 295.480469 95.421875 L 295.480469 404.609375 C 295.480469 425.472656 312.550781 442.546875 333.414062 442.546875 C 340.246094 442.546875 346.695312 441.027344 352.382812 437.613281 L 422.566406 397.023438 C 434.328125 390.191406 441.535156 377.671875 441.535156 364.015625 L 441.535156 282.832031 L 521.585938 329.113281 L 711.269531 437.613281 C 716.960938 441.027344 723.410156 442.546875 730.238281 442.546875 C 751.105469 442.546875 768.175781 425.472656 768.175781 404.609375 L 768.175781 323.421875 C 768.175781 309.765625 760.96875 297.625 749.207031 290.796875 L 650.191406 233.511719 L 498.441406 145.117188 L 352.382812 62.414062 C 346.695312 59 340.246094 57.484375 333.414062 57.484375 Z M 333.414062 57.484375 " fill-opacity="1" fill-rule="nonzero"/><path fill="#449dbf" d="M 705.960938 271.070312 C 701.027344 271.070312 696.09375 269.550781 691.542969 267.277344 L 423.707031 112.492188 C 414.601562 107.5625 409.289062 98.078125 409.289062 87.832031 C 409.289062 77.589844 414.601562 68.105469 423.707031 63.175781 L 493.890625 22.582031 C 498.441406 19.925781 503.375 18.789062 508.304688 18.789062 C 513.238281 18.789062 518.171875 19.925781 522.34375 22.582031 L 719.996094 136.394531 C 728.722656 141.324219 734.410156 150.429688 734.410156 160.671875 L 734.410156 242.238281 C 734.410156 258.171875 721.894531 270.691406 705.960938 271.070312 Z M 705.960938 271.070312 " fill-opacity="1" fill-rule="nonzero"/><path fill="#ffffff" d="M 508.304688 28.273438 C 511.71875 28.273438 514.753906 29.03125 517.789062 30.546875 L 616.425781 87.832031 L 713.925781 144.738281 C 719.617188 148.152344 723.410156 154.222656 723.410156 161.050781 L 723.410156 242.617188 C 723.410156 253.238281 715.0625 261.585938 704.441406 261.585938 C 701.027344 261.585938 697.613281 260.828125 694.957031 258.929688 L 614.910156 212.648438 L 506.789062 150.429688 L 426.742188 104.144531 C 417.636719 98.457031 414.601562 86.695312 420.292969 77.589844 C 421.808594 74.933594 424.085938 72.660156 426.742188 71.140625 L 497.304688 30.546875 C 500.339844 29.03125 503.375 28.273438 506.789062 28.273438 M 506.789062 9.304688 C 499.960938 9.304688 493.511719 10.820312 487.820312 14.234375 L 417.257812 54.828125 C 405.496094 61.65625 398.289062 74.175781 398.289062 87.832031 C 398.289062 101.492188 405.496094 113.628906 417.257812 120.460938 L 497.304688 166.742188 L 605.425781 229.339844 L 686.992188 274.484375 C 692.679688 277.898438 699.128906 279.796875 705.960938 279.796875 C 726.824219 279.796875 743.894531 262.722656 743.894531 241.859375 L 743.894531 160.671875 C 743.894531 147.015625 736.6875 134.875 724.925781 128.046875 L 625.910156 70.761719 L 527.273438 13.855469 C 521.585938 10.441406 515.136719 8.925781 508.304688 8.925781 L 506.789062 8.925781 Z M 506.789062 9.304688 " fill-opacity="1" fill-rule="nonzero"/><path fill="#449dbf" d="M 298.511719 117.046875 C 301.167969 121.21875 302.308594 126.53125 302.308594 131.460938 L 302.308594 440.648438 C 302.308594 440.648438 303.445312 443.683594 304.582031 444.824219 C 307.238281 449.375 312.929688 450.890625 317.480469 448.238281 L 387.667969 407.644531 C 396.390625 402.332031 407.394531 402.332031 416.117188 407.644531 L 486.683594 448.617188 C 490.855469 450.890625 494.648438 454.6875 496.925781 458.859375 C 500.71875 465.308594 501.855469 472.894531 499.960938 480.105469 C 498.0625 487.691406 493.511719 494.140625 486.683594 497.933594 L 218.085938 653.097656 C 204.429688 661.0625 186.976562 656.132812 179.390625 642.855469 C 176.734375 638.679688 175.597656 633.75 175.597656 628.816406 L 175.597656 172.8125 C 175.597656 162.570312 180.527344 153.464844 189.253906 148.152344 L 259.4375 107.5625 C 273.09375 99.59375 290.546875 103.765625 298.511719 117.425781 Z M 298.511719 117.046875 " fill-opacity="1" fill-rule="nonzero"/><path fill="#ffffff" d="M 187.359375 637.542969 C 185.839844 634.507812 184.703125 631.472656 184.703125 628.058594 L 184.703125 285.867188 L 185.460938 172.8125 C 185.460938 165.984375 188.875 159.914062 194.945312 156.5 L 265.128906 115.90625 C 273.855469 110.597656 285.234375 113.25 290.546875 122.355469 C 290.546875 122.355469 290.546875 122.734375 290.925781 123.113281 C 292.445312 126.148438 293.582031 129.183594 293.582031 132.597656 L 293.582031 351.496094 L 293.960938 351.496094 L 293.960938 443.683594 C 293.960938 447.097656 295.097656 450.511719 296.617188 453.167969 C 301.929688 462.273438 313.308594 465.308594 322.414062 459.996094 L 392.597656 419.40625 C 398.667969 415.992188 405.875 415.992188 411.945312 419.40625 L 480.234375 457.34375 C 482.886719 459.238281 485.164062 461.515625 487.0625 464.550781 C 492.371094 473.277344 489.71875 484.65625 480.613281 489.96875 C 480.613281 489.96875 480.234375 489.96875 479.851562 490.347656 L 212.015625 644.75 C 202.910156 650.0625 191.53125 647.027344 186.21875 637.921875 M 171.042969 647.027344 C 181.667969 665.238281 204.808594 671.308594 223.019531 661.066406 L 490.855469 506.660156 C 509.066406 496.039062 515.136719 472.894531 504.890625 454.6875 C 501.476562 448.996094 496.925781 444.0625 491.234375 440.648438 L 421.050781 400.054688 C 409.289062 393.226562 394.875 393.226562 383.113281 400.054688 L 312.929688 440.648438 L 312.929688 348.082031 L 312.171875 129.5625 C 312.171875 122.734375 310.273438 116.285156 306.859375 110.597656 C 296.238281 92.386719 273.09375 86.316406 254.886719 96.558594 L 184.703125 137.152344 C 172.941406 143.980469 166.113281 156.5 166.113281 169.777344 L 166.113281 284.347656 L 165.355469 459.996094 L 166.871094 627.679688 C 166.871094 634.507812 168.769531 640.957031 172.183594 646.648438 L 171.042969 646.648438 Z M 171.042969 647.027344 " fill-opacity="1" fill-rule="nonzero"/><path fill="#66d5c8" d="M 171.042969 231.234375 C 173.320312 235.789062 174.839844 240.71875 174.839844 245.652344 L 174.839844 554.839844 C 174.839844 565.082031 169.527344 574.566406 160.421875 579.5 C 151.695312 584.8125 140.695312 584.8125 131.96875 579.5 L 61.785156 538.90625 C 57.234375 536.25 53.820312 532.835938 51.164062 528.285156 C 48.507812 524.109375 47.371094 519.179688 47.371094 514.246094 L 47.371094 286.246094 C 47.371094 276 52.300781 266.898438 61.027344 261.585938 L 131.589844 220.992188 C 145.246094 213.027344 162.699219 217.578125 170.664062 231.234375 Z M 171.042969 231.234375 " fill-opacity="1" fill-rule="nonzero"/><path fill="#ffffff" d="M 59.507812 523.730469 C 57.992188 520.695312 56.855469 517.660156 56.855469 514.246094 L 56.855469 287.003906 C 57.613281 280.175781 61.027344 274.105469 66.71875 270.691406 L 137.28125 230.097656 C 146.386719 224.785156 157.765625 227.820312 163.078125 236.925781 C 164.976562 239.960938 165.734375 242.996094 165.355469 246.410156 L 165.355469 556.359375 C 165.355469 566.980469 156.25 575.328125 145.625 575.328125 C 142.589844 575.328125 139.558594 574.566406 136.902344 573.050781 L 66.339844 532.078125 C 63.683594 530.179688 61.40625 527.90625 59.507812 524.871094 M 43.953125 534.355469 C 47.371094 540.042969 51.921875 544.976562 57.613281 548.390625 L 128.175781 589.363281 C 139.9375 596.191406 154.351562 596.191406 166.113281 589.363281 C 177.875 582.535156 184.703125 570.015625 184.703125 556.738281 L 184.703125 339.355469 L 183.183594 246.03125 C 183.183594 239.203125 181.667969 232.753906 178.253906 227.0625 C 167.628906 208.851562 144.488281 202.78125 126.277344 213.027344 L 56.09375 253.617188 C 44.335938 260.449219 37.503906 272.96875 37.503906 286.246094 L 37.503906 514.625 C 37.503906 521.457031 39.402344 527.90625 42.816406 533.59375 L 43.953125 534.734375 Z M 43.953125 534.355469 " fill-opacity="1" fill-rule="nonzero"/><path fill="#66d5c8" d="M 238.953125 646.648438 C 241.226562 642.476562 245.023438 638.679688 249.574219 636.027344 L 517.410156 481.621094 C 517.410156 481.621094 519.308594 478.964844 519.6875 477.449219 C 522.34375 472.894531 520.824219 467.207031 516.273438 464.550781 L 446.089844 423.957031 C 437.363281 418.644531 431.671875 409.539062 431.671875 399.296875 L 431.671875 317.734375 C 431.671875 312.800781 433.191406 307.871094 435.46875 303.695312 C 439.261719 297.625 444.949219 292.695312 452.160156 290.417969 C 459.746094 288.140625 467.714844 289.28125 474.164062 293.074219 L 742.757812 448.238281 C 756.414062 455.824219 760.96875 473.65625 753 486.933594 C 750.726562 491.105469 746.929688 494.898438 742.757812 497.175781 L 347.832031 725.558594 C 338.726562 730.488281 328.484375 730.488281 319.378906 725.558594 L 249.195312 684.964844 C 235.539062 677.378906 230.984375 659.925781 238.195312 646.269531 Z M 238.953125 646.648438 " fill-opacity="1" fill-rule="nonzero"/><path fill="#ffffff" d="M 745.414062 482.757812 C 743.515625 485.792969 741.621094 488.070312 738.585938 489.96875 L 441.917969 660.683594 L 343.660156 716.453125 C 337.96875 719.488281 330.761719 719.867188 324.691406 716.453125 L 254.507812 675.859375 C 245.78125 670.546875 242.367188 659.546875 247.296875 650.441406 L 247.296875 649.683594 C 249.574219 646.648438 251.472656 644.371094 254.507812 642.476562 L 443.8125 532.457031 L 523.480469 486.175781 C 526.515625 484.65625 528.792969 482.378906 530.6875 479.34375 C 536 470.242188 532.964844 458.859375 523.859375 453.546875 L 453.675781 412.957031 C 447.605469 409.539062 443.8125 403.472656 443.8125 396.261719 L 442.675781 318.113281 C 442.675781 314.699219 443.8125 311.664062 445.332031 308.628906 C 450.640625 299.902344 461.644531 296.488281 470.75 301.417969 L 471.507812 301.417969 C 471.507812 301.417969 739.34375 456.582031 739.34375 456.582031 C 748.449219 461.894531 751.484375 473.273438 746.171875 482.378906 M 761.726562 492.242188 C 771.96875 474.035156 765.898438 450.890625 747.691406 440.269531 L 479.851562 285.867188 C 461.644531 275.242188 438.5 281.691406 427.878906 299.902344 C 424.464844 305.972656 422.566406 312.042969 422.566406 318.871094 L 422.566406 400.054688 C 422.566406 413.714844 429.777344 426.234375 441.917969 433.0625 L 512.101562 473.65625 L 432.050781 519.9375 L 243.125 629.957031 C 237.433594 632.992188 232.882812 637.921875 229.46875 643.992188 C 219.226562 662.203125 225.292969 685.34375 243.503906 695.964844 L 313.6875 736.558594 C 325.449219 743.386719 339.484375 743.386719 351.246094 736.558594 L 450.261719 679.273438 L 602.769531 592.019531 L 747.3125 507.039062 C 753 504.003906 757.554688 499.074219 760.96875 493.003906 Z M 761.726562 492.242188 " fill-opacity="1" fill-rule="nonzero"/><path fill="#012bad" d="M 403.21875 700.140625 C 405.875 695.964844 409.667969 692.171875 413.84375 689.515625 L 681.679688 535.113281 C 690.40625 529.800781 701.40625 529.800781 710.132812 535.113281 C 719.238281 540.042969 724.546875 549.527344 724.167969 559.773438 L 724.167969 640.957031 C 724.167969 646.269531 722.652344 650.820312 720.375 655.375 C 718.097656 659.925781 714.304688 663.339844 710.132812 665.617188 L 512.859375 779.808594 C 504.132812 785.117188 493.511719 785.117188 484.785156 780.1875 L 414.222656 739.214844 C 400.566406 731.25 395.632812 713.796875 403.597656 700.140625 Z M 403.21875 700.140625 " fill-opacity="1" fill-rule="nonzero"/><path fill="#ffffff" d="M 712.410156 650.441406 C 710.511719 653.097656 708.613281 655.753906 705.578125 657.648438 L 606.5625 714.933594 L 508.683594 771.460938 C 502.234375 774.117188 495.40625 774.117188 489.71875 771.082031 L 419.152344 730.109375 C 410.046875 724.800781 407.015625 713.417969 412.324219 704.3125 C 413.84375 701.277344 416.117188 699 419.53125 697.484375 L 499.582031 651.199219 L 607.703125 588.984375 L 687.75 542.699219 C 696.855469 537.390625 708.613281 541.183594 713.925781 550.289062 C 715.441406 552.945312 716.203125 555.976562 716.203125 559.011719 L 716.203125 640.578125 C 715.824219 643.992188 714.683594 647.027344 713.167969 650.0625 M 729.480469 658.410156 C 732.515625 652.71875 734.792969 646.269531 734.792969 639.441406 L 734.792969 557.875 C 734.792969 544.21875 727.960938 531.699219 716.203125 524.871094 C 704.441406 518.042969 690.023438 518.421875 678.644531 524.871094 L 598.597656 571.152344 L 490.476562 633.371094 L 410.429688 681.171875 C 404.359375 684.585938 399.804688 689.136719 396.390625 694.828125 C 385.769531 713.039062 392.21875 736.179688 410.046875 746.800781 L 480.234375 787.394531 C 491.992188 794.222656 506.410156 793.84375 517.789062 787.394531 L 617.1875 730.109375 L 715.824219 673.203125 C 721.890625 669.789062 726.445312 664.859375 729.480469 659.167969 L 729.480469 657.648438 Z M 729.480469 658.410156 " fill-opacity="1" fill-rule="nonzero"/></svg>